<?xml version="1.0" standalone="no"?>
<!DOCTYPE svg PUBLIC "-//W3C//DTD SVG 20010904//EN"
 "http://www.w3.org/TR/2001/REC-SVG-20010904/DTD/svg10.dtd">
<svg version="1.0" xmlns="http://www.w3.org/2000/svg"
 width="260.000000pt" height="260.000000pt" viewBox="0 0 260.000000 260.000000"
 preserveAspectRatio="xMidYMid meet">
<metadata>
Created by potrace 1.14, written by Peter Selinger 2001-2017
</metadata>
<g transform="translate(0.000000,260.000000) scale(0.100000,-0.100000)"
fill="#000000" stroke="none">
<path d="M1280 2538 c0 -59 -1 -60 -18 -45 -47 43 -43 -16 5 -67 l36 -39 34
39 c20 24 33 50 33 68 l0 29 -25 -23 -25 -23 0 61 c0 55 -2 62 -20 62 -18 0
-20 -7 -20 -62z"/>
<path d="M961 2551 c-12 -8 -12 -17 2 -66 l16 -57 -25 17 c-59 39 -38 -24 21
-65 l44 -31 24 48 c22 46 26 93 7 93 -5 0 -12 -9 -15 -20 -11 -33 -21 -23 -35
35 -14 58 -16 60 -39 46z"/>
<path d="M1615 2547 c-2 -6 -10 -34 -18 -61 l-13 -49 -14 34 -14 33 -12 -29
c-10 -24 -8 -35 14 -76 l25 -49 29 18 c46 26 68 51 68 74 0 20 -1 20 -26 3
-27 -17 -27 -17 -20 6 17 66 18 96 2 102 -9 4 -19 1 -21 -6z"/>
<path d="M644 2419 c-3 -6 6 -33 21 -60 29 -53 28 -54 -9 -39 -30 11 -32 3 -8
-26 16 -20 69 -44 98 -44 7 0 17 21 23 48 8 39 7 51 -7 72 l-17 25 -3 -27 c-5
-39 -16 -35 -43 17 -24 44 -41 55 -55 34z"/>
<path d="M1922 2418 c-5 -7 -17 -28 -26 -46 -18 -35 -36 -35 -36 1 0 22 -1 22
-19 -2 -16 -21 -17 -30 -7 -75 10 -42 15 -50 31 -48 41 8 84 31 95 53 12 21
11 22 -20 16 l-32 -7 27 46 c25 42 28 74 7 74 -5 0 -14 -6 -20 -12z"/>
<path d="M1114 2302 l-25 -33 23 -19 c28 -24 63 -35 79 -25 8 6 7 10 -5 17
-26 15 -19 24 21 26 41 3 46 6 49 27 2 11 -8 13 -49 8 l-52 -6 19 22 c19 21
19 21 -8 19 -17 -2 -36 -14 -52 -36z"/>
<path d="M1376 2315 l-29 -24 25 -33 c17 -22 35 -34 53 -36 27 -2 27 -1 12 16
-25 27 -21 30 26 22 45 -9 50 -7 53 15 1 9 -6 16 -17 16 -10 1 -28 3 -39 4
-11 1 -26 3 -32 4 -8 1 -6 6 5 12 9 5 17 14 17 19 0 18 -45 9 -74 -15z"/>
<path d="M903 2270 c-12 -5 -31 -27 -42 -49 l-20 -39 39 -16 c26 -10 47 -13
62 -7 l22 8 -21 13 c-20 13 -20 14 23 34 34 16 42 24 34 36 -8 12 -14 12 -46
-3 -41 -20 -54 -15 -36 13 7 11 11 20 10 19 -2 0 -13 -4 -25 -9z"/>
<path d="M1643 2263 c-39 -13 -41 -16 -32 -39 17 -46 28 -61 49 -67 23 -6 24
-3 10 24 -13 23 -12 23 33 4 46 -19 57 -19 57 0 0 8 -18 23 -41 32 -40 16 -41
16 -18 28 21 12 22 13 3 22 -13 7 -32 6 -61 -4z"/>
<path d="M381 2216 c-10 -12 -4 -22 30 -55 l41 -41 -33 0 -32 0 22 -23 c16
-18 33 -24 71 -26 l50 -1 0 53 c0 40 -5 58 -18 70 -26 24 -30 21 -27 -14 l3
-31 -42 41 c-47 46 -49 47 -65 27z"/>
<path d="M2166 2194 c-39 -39 -46 -39 -49 -5 l-1 21 -22 -21 c-15 -14 -21 -33
-23 -69 l-1 -50 48 0 c27 0 57 7 70 16 26 18 21 35 -8 29 -28 -5 -25 4 17 47
34 34 36 40 22 54 -14 14 -19 12 -53 -22z"/>
<path d="M1296 2137 c5 -17 2 -19 -19 -15 -14 3 -31 2 -38 -2 -19 -13 -2 -27
31 -25 30 2 43 -18 18 -28 -7 -3 -3 -6 8 -6 12 -1 33 9 48 20 l27 22 -26 27
c-31 32 -58 36 -49 7z"/>
<path d="M722 2125 c-36 -30 -42 -31 -42 -5 0 32 -28 12 -40 -28 -15 -56 -13
-60 36 -64 33 -2 49 1 60 14 14 15 13 17 -12 20 l-28 3 37 25 c20 14 37 30 37
37 0 23 -19 23 -48 -2z"/>
<path d="M1878 2142 c-35 -3 -38 -5 -38 -35 0 -33 23 -77 41 -77 5 0 7 11 5
25 -5 25 -5 25 35 -7 33 -27 42 -30 49 -18 7 11 0 23 -28 47 -33 29 -35 32
-14 33 12 0 22 3 22 8 0 15 -36 27 -72 24z"/>
<path d="M1077 2123 c-4 -3 -2 -12 4 -20 9 -10 7 -13 -8 -13 -25 0 -59 -25
-46 -33 6 -4 25 -2 42 3 29 8 31 7 26 -10 -9 -30 27 -14 47 21 17 29 17 29
-12 44 -32 17 -43 18 -53 8z"/>
<path d="M1515 2111 c5 -18 3 -19 -26 -11 -17 5 -36 7 -40 4 -19 -11 -7 -23
28 -30 32 -6 34 -8 19 -20 -16 -11 -16 -13 2 -18 21 -7 72 12 72 26 0 5 -5 19
-11 31 -20 38 -55 52 -44 18z"/>
<path d="M873 2043 c-7 -2 -13 -9 -13 -14 0 -6 4 -8 9 -4 5 3 12 1 16 -4 3 -6
-9 -17 -26 -26 -23 -12 -28 -20 -20 -28 8 -8 19 -6 42 7 l31 18 -7 -22 c-6
-19 -5 -21 13 -11 18 9 40 67 30 76 -7 7 -64 13 -75 8z"/>
<path d="M1715 2029 c7 -20 6 -20 -25 -4 -46 24 -64 3 -21 -23 28 -17 30 -20
14 -26 -17 -7 -17 -8 0 -17 23 -13 77 -2 77 16 0 26 -19 62 -35 69 -13 5 -15
2 -10 -15z"/>
<path d="M522 1942 c-28 -34 -31 -35 -31 -14 -1 12 -5 22 -10 22 -14 0 -28
-52 -21 -85 5 -26 9 -30 35 -27 34 4 75 27 75 43 0 6 -9 8 -20 4 -26 -8 -25
-1 5 39 29 38 30 42 11 49 -8 3 -27 -10 -44 -31z"/>
<path d="M1196 1958 c-9 -12 -16 -32 -15 -43 0 -11 3 -14 6 -7 8 21 23 13 23
-13 0 -15 6 -25 15 -25 11 0 13 8 8 30 -5 26 -3 29 12 24 15 -6 16 -4 7 13
-22 39 -39 46 -56 21z"/>
<path d="M176 1954 c-9 -22 -1 -31 52 -58 l47 -24 -35 -9 -35 -9 25 -17 c22
-14 32 -14 73 -4 52 13 53 15 37 73 -8 28 -20 45 -37 53 -25 11 -25 11 -19
-19 l6 -31 -54 30 c-46 27 -55 29 -60 15z"/>
<path d="M1356 1948 c-21 -29 -20 -44 0 -27 15 13 17 11 12 -19 -3 -22 -1 -32
9 -32 12 0 18 20 14 44 -1 5 5 6 14 3 18 -8 21 23 3 41 -18 18 -35 15 -52 -10z"/>
<path d="M2028 1924 c-2 -34 1 -49 14 -61 17 -15 18 -14 18 11 l0 28 27 -34
c15 -18 28 -35 30 -37 1 -2 10 -1 19 3 14 5 13 10 -10 40 -31 42 -32 50 -6 43
11 -3 20 -1 20 3 0 14 -30 40 -48 41 -9 0 -27 2 -39 5 -19 3 -21 -2 -25 -42z"/>
<path d="M2294 1952 c-12 -9 -28 -38 -37 -63 l-15 -47 51 -10 c44 -9 56 -8 77
6 l25 17 -27 3 c-16 2 -28 6 -28 10 0 4 20 19 45 34 25 15 45 32 45 37 0 23
-25 22 -71 -4 -53 -29 -54 -28 -39 9 11 30 4 32 -26 8z"/>
<path d="M1030 1904 c-6 -14 -10 -30 -10 -35 0 -13 18 -11 23 4 3 7 9 0 16
-15 6 -16 15 -28 21 -28 12 0 12 2 0 35 -9 23 -8 26 5 21 23 -8 18 11 -7 28
-30 22 -37 20 -48 -10z"/>
<path d="M1534 1920 c-26 -10 -43 -46 -18 -36 12 4 15 2 10 -9 -3 -8 -9 -22
-12 -30 -4 -9 -1 -15 9 -15 8 0 18 12 22 27 5 21 8 24 15 13 14 -22 23 -5 15
29 -7 33 -9 34 -41 21z"/>
<path d="M1825 1920 c-4 -6 2 -22 14 -34 25 -27 26 -36 5 -36 -33 0 4 -26 41
-28 33 -2 35 -1 35 27 0 35 -9 61 -21 61 -5 0 -9 -8 -9 -17 0 -13 -6 -11 -29
11 -20 19 -31 24 -36 16z"/>
<path d="M696 1905 c-3 -10 1 -15 11 -15 13 0 11 -6 -11 -29 -33 -35 -17 -55
18 -22 26 25 41 27 32 6 -3 -8 -2 -15 3 -15 15 0 27 24 30 58 2 31 1 32 -37
32 -26 0 -42 -5 -46 -15z"/>
<path d="M880 1811 c0 -17 5 -33 10 -36 6 -3 10 -1 10 6 0 7 10 3 23 -9 29
-27 42 -18 21 13 -11 17 -12 24 -3 27 22 7 -1 28 -32 28 -25 0 -29 -4 -29 -29z"/>
<path d="M1656 1824 c-3 -7 0 -15 7 -17 8 -3 6 -10 -6 -25 -12 -13 -15 -22 -7
-27 6 -3 19 4 30 17 11 13 19 17 20 11 0 -7 5 -13 10 -13 6 0 10 16 10 35 0
33 -2 35 -30 33 -16 -1 -32 -8 -34 -14z"/>
<path d="M1287 1764 c-1 -1 -24 -4 -52 -7 -163 -18 -308 -133 -377 -298 -18
-44 -22 -74 -22 -159 -1 -163 4 -163 108 -10 49 71 93 130 98 130 6 0 32 -18
58 -40 26 -22 50 -40 53 -40 2 0 39 63 82 141 42 77 78 139 80 137 1 -2 32
-68 68 -148 l66 -145 14 33 13 32 132 -134 132 -135 13 47 c20 67 21 170 2
244 -39 148 -152 272 -295 323 -39 14 -166 35 -173 29z"/>
<path d="M1964 1756 c-3 -9 2 -28 11 -43 17 -25 17 -26 -4 -20 -18 4 -19 2
-11 -14 8 -14 67 -41 77 -35 7 5 10 75 3 86 -7 12 -11 10 -18 -9 -8 -24 -9
-24 -22 8 -15 38 -28 48 -36 27z"/>
<path d="M383 1719 c-15 -39 -17 -40 -28 -20 -23 45 -35 -20 -12 -71 12 -26
13 -26 48 -12 20 8 41 26 47 40 13 27 10 29 -19 14 -23 -13 -23 -12 -4 33 19
46 19 57 0 57 -8 0 -23 -18 -32 -41z"/>
<path d="M584 1750 c-12 -4 -24 -16 -28 -25 -5 -13 -2 -15 15 -10 20 7 20 6 5
-24 -30 -56 -10 -74 23 -20 17 28 20 29 29 13 9 -16 10 -16 16 4 4 11 4 32 0
46 -6 27 -23 31 -60 16z"/>
<path d="M2167 1720 c-15 -38 -13 -80 3 -80 4 0 10 10 14 23 5 19 9 17 28 -25
18 -37 26 -46 38 -38 12 8 12 14 -3 45 -22 45 -21 48 4 40 38 -12 17 28 -27
52 l-41 23 -16 -40z"/>
<path d="M760 1696 c0 -28 25 -55 33 -34 3 10 9 8 25 -5 13 -12 22 -15 27 -7
3 6 -4 19 -17 30 -13 11 -17 19 -10 20 6 0 12 5 12 10 0 6 -16 10 -35 10 -30
0 -35 -3 -35 -24z"/>
<path d="M1775 1710 c-3 -5 1 -10 10 -10 12 0 9 -6 -11 -23 -18 -16 -23 -26
-16 -31 6 -4 20 2 32 14 16 16 20 17 20 4 0 -29 25 -8 28 24 3 30 1 32 -27 32
-16 0 -33 -4 -36 -10z"/>
<path d="M153 1657 c20 -31 15 -32 -48 -15 -39 10 -48 10 -55 -2 -13 -21 -5
-28 56 -41 l56 -13 -33 -16 -32 -17 29 -10 c24 -9 37 -6 76 14 l47 25 -26 42
c-14 22 -26 42 -27 43 -1 1 -14 5 -31 9 l-29 7 17 -26z"/>
<path d="M2422 1673 c-7 -2 -26 -24 -42 -49 l-31 -43 48 -24 c47 -23 93 -25
93 -5 0 5 -9 12 -20 15 -32 9 -23 18 30 32 55 14 63 20 50 41 -7 12 -17 11
-65 -2 l-56 -16 16 24 c8 13 15 26 15 29 0 6 -20 5 -38 -2z"/>
<path d="M510 1562 c-30 -20 -40 -32 -40 -51 0 -10 3 -11 13 -2 20 16 27 3 16
-26 -5 -14 -7 -29 -3 -34 11 -18 22 -8 29 28 6 34 8 36 20 20 12 -16 13 -16
18 5 4 13 -1 33 -11 49 -16 26 -18 26 -42 11z"/>
<path d="M688 1573 c-28 -7 -19 -46 15 -64 17 -10 19 -9 13 6 -4 12 -2 16 6
12 7 -3 21 -8 31 -12 12 -5 17 -2 17 8 0 8 -12 18 -27 22 -16 4 -22 10 -15 12
6 3 12 9 12 14 0 9 -22 10 -52 2z"/>
<path d="M1865 1570 c-3 -5 0 -10 7 -10 7 -1 1 -8 -14 -16 -16 -8 -28 -19 -28
-24 0 -12 2 -12 35 0 23 9 26 8 21 -5 -9 -25 12 -17 31 11 16 25 16 27 -2 40
-22 16 -41 18 -50 4z"/>
<path d="M2063 1572 c-9 -6 -10 -17 -3 -41 8 -29 7 -31 -11 -26 -36 12 -21
-20 23 -48 27 -17 28 -17 43 12 17 34 20 61 5 61 -5 0 -14 -8 -19 -17 -9 -16
-11 -15 -11 7 -2 39 -13 60 -27 52z"/>
<path d="M315 1507 c-4 -11 -12 -56 -14 -81 -1 -4 -10 2 -21 15 l-19 24 0 -30
c0 -17 10 -43 23 -59 l24 -29 34 26 c21 17 34 36 36 53 2 27 2 27 -19 8 l-21
-19 4 47 c4 34 1 49 -9 52 -8 3 -16 0 -18 -7z"/>
<path d="M2243 1477 c-24 -35 -29 -62 -14 -71 5 -3 11 1 15 9 10 27 22 16 24
-22 3 -41 14 -59 31 -49 6 4 8 26 4 54 l-6 47 22 -19 c21 -19 21 -19 21 3 0
20 -52 81 -69 81 -3 0 -16 -15 -28 -33z"/>
<path d="M1185 1280 c-105 -171 -118 -188 -135 -178 -17 11 -16 15 17 72 62
109 60 104 27 131 -16 13 -32 24 -36 25 -6 0 -106 -118 -162 -192 l-28 -38 28
-47 c40 -70 125 -148 196 -181 209 -99 444 -43 582 138 l48 64 -34 31 c-18 16
-67 60 -108 97 -41 38 -78 68 -82 68 -4 0 -22 -27 -40 -60 -21 -39 -38 -58
-46 -55 -8 3 -18 5 -23 5 -5 0 0 21 10 48 l19 47 -54 108 c-30 59 -56 107 -58
107 -3 0 -57 -85 -121 -190z"/>
<path d="M636 1402 c-15 -18 -15 -20 1 -34 33 -28 47 -33 40 -13 -6 15 -3 17
23 13 20 -3 30 0 30 9 0 12 -20 18 -44 14 -5 -1 -6 5 -3 14 9 22 -26 20 -47
-3z"/>
<path d="M1914 1405 c4 -11 -1 -15 -19 -15 -15 0 -25 -6 -25 -14 0 -10 9 -13
30 -10 24 4 29 2 24 -11 -9 -22 16 -15 38 10 17 19 16 21 -3 38 -26 21 -53 23
-45 2z"/>
<path d="M100 1345 l23 -25 -60 0 c-53 0 -61 -2 -59 -17 2 -14 15 -19 61 -21
l57 -3 -23 -25 -22 -24 25 0 c25 0 71 29 95 60 10 12 6 21 -25 47 -23 20 -48
32 -66 33 l-29 0 23 -25z"/>
<path d="M470 1345 c-33 -35 -37 -78 -4 -45 6 6 10 -2 11 -26 1 -39 7 -49 22
-39 6 3 9 22 6 42 -3 28 -2 34 7 25 33 -33 38 5 5 43 l-22 26 -25 -26z"/>
<path d="M2096 1362 c-2 -4 -3 -22 -2 -39 2 -31 1 -32 -17 -16 -17 16 -18 16
-13 -11 3 -16 13 -37 22 -47 17 -19 18 -19 44 6 32 30 36 58 8 49 -15 -4 -19
-1 -18 13 4 33 0 53 -9 53 -6 0 -12 -3 -15 -8z"/>
<path d="M2428 1333 l-37 -37 37 -33 c24 -21 47 -33 66 -33 l29 0 -23 25 -23
25 60 0 c53 0 61 2 59 18 -2 13 -15 18 -61 20 l-57 3 23 25 22 24 -29 0 c-20
0 -40 -11 -66 -37z"/>
<path d="M297 1254 c-3 -3 -3 -27 0 -53 l6 -46 -22 19 c-21 19 -21 19 -21 -3
0 -19 54 -81 70 -81 12 0 49 67 47 88 -2 25 -12 29 -21 7 -10 -27 -23 -16 -24
20 -2 48 -16 68 -35 49z"/>
<path d="M641 1236 l-22 -24 22 -16 c30 -20 53 -21 45 -1 -4 11 1 15 19 15 15
0 25 6 25 14 0 10 -9 13 -31 9 -19 -3 -29 -1 -25 6 13 21 -12 19 -33 -3z"/>
<path d="M1921 1244 c13 -15 11 -17 -19 -12 -22 3 -32 1 -32 -9 0 -7 11 -13
25 -13 18 0 23 -4 19 -15 -8 -19 24 -20 50 0 17 13 17 15 -7 39 -29 29 -58 37
-36 10z"/>
<path d="M2255 1226 c-18 -14 -30 -34 -31 -50 -1 -26 0 -26 19 -9 20 18 20 17
15 -29 -4 -36 -2 -48 10 -53 19 -7 19 -8 25 45 3 25 6 47 6 49 1 2 10 -7 21
-20 l19 -24 1 24 c0 24 -36 91 -48 91 -4 0 -20 -11 -37 -24z"/>
<path d="M484 1129 c-19 -37 -12 -68 11 -49 12 10 15 9 15 -7 0 -25 25 -59 33
-46 4 6 2 25 -3 42 -8 29 -7 31 10 26 30 -9 14 27 -21 47 -29 17 -29 17 -45
-13z"/>
<path d="M2074 1123 c-6 -32 -8 -34 -19 -19 -11 15 -13 15 -18 -6 -3 -12 1
-34 10 -49 16 -26 17 -27 42 -11 31 20 41 32 41 52 0 11 -3 11 -12 2 -20 -20
-27 -13 -18 19 5 18 7 36 4 40 -11 19 -23 7 -30 -28z"/>
<path d="M683 1074 c-16 -25 -16 -27 2 -40 21 -16 55 -19 55 -5 0 5 -6 11 -12
14 -8 3 -1 9 15 16 15 6 27 15 27 21 0 12 -2 12 -35 0 -23 -9 -26 -8 -21 5 9
25 -12 17 -31 -11z"/>
<path d="M1830 1077 c0 -8 12 -18 28 -22 15 -4 21 -10 15 -12 -7 -3 -13 -9
-13 -14 0 -13 34 -11 54 4 15 11 17 17 7 35 -6 12 -19 22 -27 22 -9 0 -12 -5
-8 -12 5 -8 2 -9 -9 -5 -10 4 -24 10 -32 13 -9 4 -15 1 -15 -9z"/>
<path d="M133 1062 c-21 -3 -33 -22 -15 -22 5 0 16 -6 26 -13 13 -10 15 -14 5
-15 -27 -2 -92 -21 -100 -29 -4 -4 -4 -14 0 -22 7 -11 17 -12 54 -2 65 16 73
14 52 -9 -10 -11 -16 -23 -12 -26 13 -13 49 10 77 51 l31 44 -48 24 c-27 12
-58 21 -70 19z"/>
<path d="M2397 1043 l-46 -26 26 -41 c29 -47 40 -56 67 -56 17 0 17 1 2 25
-19 28 -14 30 49 13 39 -10 48 -10 55 2 13 21 7 25 -55 40 l-57 14 33 16 32
17 -30 10 c-25 9 -37 7 -76 -14z"/>
<path d="M350 1000 c-12 -8 -12 -14 3 -46 20 -42 17 -50 -12 -35 -40 22 -7
-32 35 -56 l39 -22 17 40 c15 33 16 45 6 62 -11 19 -13 20 -16 5 -6 -29 -20
-21 -39 22 -14 31 -21 38 -33 30z"/>
<path d="M2203 982 c-17 -8 -36 -25 -42 -38 -12 -27 -9 -29 20 -14 23 13 23
12 4 -33 -19 -46 -19 -57 0 -57 8 0 23 18 32 41 15 39 17 40 28 20 23 -44 34
10 14 68 -12 35 -12 34 -56 13z"/>
<path d="M567 952 c-11 -19 -16 -62 -10 -78 6 -16 7 -16 19 1 11 15 14 14 29
-15 12 -24 20 -29 28 -21 8 8 6 19 -7 42 l-18 31 22 -7 c19 -6 21 -5 11 13
-11 20 -68 46 -74 34z"/>
<path d="M815 944 c-13 -10 -21 -11 -26 -3 -11 19 -29 0 -29 -32 0 -25 4 -29
29 -29 17 0 33 5 36 10 3 6 1 10 -6 10 -7 0 -3 10 10 24 26 27 16 42 -14 20z"/>
<path d="M1755 950 c-3 -6 4 -19 17 -30 22 -18 22 -19 3 -20 -32 -1 4 -20 38
-20 22 0 27 4 27 24 0 28 -25 55 -33 34 -3 -10 -9 -8 -25 5 -13 12 -22 15 -27
7z"/>
<path d="M2004 929 c-14 -26 -19 -30 -22 -16 -5 23 -19 22 -27 -2 -8 -27 4
-71 20 -71 26 0 62 19 69 35 5 13 2 15 -15 10 -20 -7 -20 -6 -4 25 11 22 13
36 7 42 -7 7 -16 -1 -28 -23z"/>
<path d="M918 827 c-16 -21 -17 -21 -18 -2 -1 32 -20 -4 -20 -37 0 -24 4 -28
29 -28 29 0 50 25 28 33 -8 3 -7 10 6 24 9 11 14 23 10 26 -10 11 -17 8 -35
-16z"/>
<path d="M1648 845 c-4 -4 0 -18 9 -31 14 -22 14 -24 -3 -24 -18 -1 -18 -1 0
-15 11 -8 30 -15 43 -15 19 0 23 5 23 29 0 31 -15 50 -23 29 -3 -9 -10 -5 -23
10 -11 13 -22 20 -26 17z"/>
<path d="M230 765 l-25 -14 25 -9 c14 -5 28 -8 33 -5 4 2 7 2 7 -1 0 -2 -22
-18 -50 -35 -27 -17 -50 -35 -50 -41 0 -22 30 -20 70 5 23 15 44 24 46 22 3
-2 0 -16 -6 -31 -10 -26 -10 -26 18 -12 20 10 32 29 44 64 l16 50 -37 7 c-20
3 -43 8 -51 10 -8 2 -26 -2 -40 -10z"/>
<path d="M680 751 c0 -35 9 -61 21 -61 5 0 9 8 9 17 0 13 6 11 29 -11 35 -33
55 -17 22 18 -25 27 -26 36 -5 36 33 0 -4 26 -41 28 -33 2 -35 1 -35 -27z"/>
<path d="M1885 760 c-22 -24 -35 -26 -35 -4 0 33 -26 -4 -28 -41 -2 -33 -1
-35 27 -35 35 0 61 9 61 21 0 5 -8 9 -17 9 -13 0 -11 6 10 28 15 16 24 31 20
35 -10 11 -19 8 -38 -13z"/>
<path d="M2295 768 c-16 -5 -35 -11 -42 -13 -20 -6 14 -91 44 -111 l26 -16 -6
31 -7 32 45 -27 c44 -25 81 -26 73 -2 -3 7 -22 22 -43 34 -35 19 -60 47 -38
43 4 -1 17 -1 28 0 17 1 18 3 4 16 -20 20 -47 24 -84 13z"/>
<path d="M456 761 c-3 -4 6 -23 20 -42 24 -33 24 -34 5 -37 -45 -7 20 -52 75
-52 19 0 22 79 4 103 -15 22 -15 22 -20 -7 l-5 -30 -25 37 c-24 36 -43 46 -54
28z"/>
<path d="M1055 743 c-5 -21 -8 -24 -15 -13 -14 22 -23 5 -15 -30 5 -22 11 -30
22 -26 8 3 19 6 23 6 5 0 14 10 21 22 10 18 9 20 -6 14 -13 -5 -16 -2 -11 9 3
8 9 22 12 30 4 9 1 15 -9 15 -8 0 -18 -12 -22 -27z"/>
<path d="M1510 766 c0 -3 5 -17 10 -31 9 -23 8 -26 -5 -21 -25 9 -17 -12 11
-31 25 -16 27 -16 40 2 8 10 14 24 14 31 0 17 -20 29 -20 12 -1 -7 -8 -1 -16
15 -12 23 -34 37 -34 23z"/>
<path d="M2052 744 c-27 -19 -29 -38 -2 -29 27 8 25 -1 -6 -43 -22 -28 -24
-36 -13 -43 10 -6 23 2 46 29 29 33 32 35 33 15 0 -13 4 -23 9 -23 13 0 27 50
23 83 -3 23 -8 27 -35 27 -18 0 -43 -7 -55 -16z"/>
<path d="M1209 713 c-1 -10 -1 -22 0 -27 1 -5 -5 -6 -14 -3 -22 9 -20 -26 3
-47 18 -15 20 -15 34 1 28 33 33 47 13 40 -15 -6 -17 -3 -13 23 3 20 0 30 -9
30 -7 0 -14 -8 -14 -17z"/>
<path d="M1366 700 c4 -25 2 -29 -12 -23 -14 5 -15 3 -6 -14 22 -39 39 -46 56
-21 20 29 21 52 1 44 -11 -4 -15 1 -15 19 0 15 -6 25 -14 25 -10 0 -13 -9 -10
-30z"/>
<path d="M863 643 c-25 -5 -28 -18 -14 -56 12 -31 45 -47 36 -16 -7 20 -6 20
24 5 56 -29 74 -10 20 23 -26 16 -28 19 -12 25 15 6 15 8 3 16 -16 10 -20 10
-57 3z"/>
<path d="M1677 638 c-9 -7 -21 -27 -26 -44 -9 -31 -8 -32 26 -37 19 -3 41 -3
50 0 14 6 14 8 -2 19 -15 11 -14 14 15 29 22 11 29 20 22 27 -6 6 -20 4 -42
-7 -31 -16 -32 -16 -25 4 7 24 5 26 -18 9z"/>
<path d="M627 568 c-3 -7 12 -27 32 -45 33 -29 34 -32 14 -33 -13 0 -23 -4
-23 -8 0 -14 43 -27 78 -24 29 3 32 6 32 35 0 33 -23 77 -41 77 -5 0 -7 -11
-5 -25 l5 -25 -37 30 c-41 33 -48 36 -55 18z"/>
<path d="M1882 569 c-33 -12 -36 -29 -6 -29 l27 0 -36 -27 c-36 -28 -45 -47
-28 -57 4 -3 23 6 42 20 33 24 34 24 37 5 7 -45 52 20 52 75 0 14 -61 23 -88
13z"/>
<path d="M1053 558 c-13 -6 -23 -17 -23 -23 0 -20 40 -65 58 -65 12 0 13 3 4
12 -20 20 -13 27 19 18 18 -5 36 -7 40 -4 19 11 7 23 -28 30 -32 6 -34 8 -19
19 15 11 15 13 0 19 -20 8 -24 7 -51 -6z"/>
<path d="M1490 564 c-8 -3 -23 -18 -32 -34 -17 -30 -17 -30 13 -46 17 -8 39
-12 50 -9 20 7 20 7 2 21 -10 7 -13 14 -6 14 6 0 24 5 39 10 39 15 18 33 -24
20 -30 -8 -32 -7 -27 11 4 10 5 18 3 18 -2 -1 -10 -3 -18 -5z"/>
<path d="M1257 520 c-29 -23 -27 -39 4 -59 30 -18 67 -25 51 -9 -19 19 -14 25
19 26 17 0 34 4 37 7 12 12 -23 24 -53 19 -24 -4 -28 -3 -17 7 32 33 -2 40
-41 9z"/>
<path d="M407 512 c-23 -26 -21 -33 8 -28 32 6 32 -6 0 -35 -39 -36 -47 -55
-30 -69 11 -9 21 -4 50 26 38 38 45 39 48 5 l1 -21 22 21 c15 14 21 33 23 69
l1 50 -53 0 c-40 0 -58 -5 -70 -18z"/>
<path d="M2071 477 c2 -47 20 -87 39 -87 4 0 6 14 5 31 l-3 31 44 -43 c39 -39
46 -42 59 -28 14 14 11 20 -25 57 -43 43 -43 46 0 42 l25 -2 -22 24 c-17 18
-34 24 -73 25 l-51 2 2 -52z"/>
<path d="M920 443 c0 -2 5 -13 10 -24 13 -22 4 -24 -30 -4 -33 19 -60 19 -60
0 0 -8 18 -23 41 -32 41 -16 41 -16 18 -29 l-24 -13 25 -9 c21 -8 80 6 98 23
9 8 -40 83 -58 88 -11 3 -20 3 -20 0z"/>
<path d="M1658 443 c-25 -6 -22 -19 5 -27 19 -5 17 -9 -25 -28 -37 -18 -46
-26 -38 -38 8 -12 14 -12 45 3 45 22 48 21 40 -4 -12 -37 27 -18 52 26 l22 40
-37 17 c-40 18 -39 18 -64 11z"/>
<path d="M1166 359 l19 -21 -49 3 c-41 3 -49 1 -52 -13 -2 -13 5 -18 24 -18
15 0 37 -3 49 -6 l22 -6 -22 -19 -22 -18 24 -1 c23 0 91 35 91 47 0 21 -51 69
-75 71 -28 2 -28 2 -9 -19z"/>
<path d="M1400 369 c0 -4 7 -9 15 -13 27 -10 16 -22 -22 -24 -41 -3 -59 -14
-49 -31 4 -6 26 -8 54 -4 l47 6 -19 -22 c-19 -21 -19 -21 3 -21 20 0 81 52 81
69 0 13 -66 50 -87 48 -13 0 -23 -4 -23 -8z"/>
<path d="M698 341 c-31 -9 -50 -22 -57 -38 -11 -24 -10 -24 20 -18 l31 7 -28
-51 c-22 -38 -26 -53 -17 -62 16 -16 30 -5 53 42 24 46 37 50 42 12 l3 -28 17
25 c14 21 15 32 6 70 -6 25 -14 47 -17 50 -3 3 -27 -1 -53 -9z"/>
<path d="M1833 313 c-10 -53 -10 -55 0 -80 11 -26 27 -21 27 8 0 31 14 22 40
-26 14 -25 30 -45 37 -45 25 0 24 23 -2 71 -29 53 -28 54 9 39 30 -11 32 -3 8
26 -16 20 -69 44 -98 44 -7 0 -16 -17 -21 -37z"/>
<path d="M972 222 c-39 -25 -63 -64 -48 -79 3 -3 16 2 27 13 22 19 22 19 16
-6 -18 -79 -19 -97 -3 -103 17 -7 36 26 36 61 0 9 4 24 9 31 8 12 12 10 22
-12 9 -20 15 -24 21 -15 14 23 8 62 -15 100 l-22 37 -43 -27z"/>
<path d="M1557 203 c-16 -32 -22 -55 -17 -68 4 -11 6 -23 3 -27 -2 -5 -2 -8 0
-8 3 0 14 14 25 31 l19 31 7 -45 c8 -55 25 -80 45 -68 13 8 13 17 -1 66 l-16
56 25 -16 c58 -39 37 25 -22 65 l-44 31 -24 -48z"/>
<path d="M1262 172 c-20 -23 -32 -48 -32 -66 l0 -29 25 23 25 23 0 -61 c0 -55
2 -62 20 -62 18 0 20 7 20 62 l0 61 25 -23 25 -23 0 29 c-1 27 -24 61 -61 91
-14 11 -21 7 -47 -25z"/>
</g>
</svg>
